<mxfile host="app.diagrams.net" modified="2020-10-07T15:54:11.792Z" agent="5.0 (X11; Linux x86_64) AppleWebKit/537.36 (KHTML, like Gecko) Chrome/83.0.4103.106 Safari/537.36" etag="2uOdUkoNj_giK1Th70D7" version="13.7.8" type="github">
  <diagram id="lURr1SUzgLX1jMfKgT8y" name="Page-1">
    <mxGraphModel dx="868" dy="472" grid="1" gridSize="10" guides="1" tooltips="1" connect="1" arrows="1" fold="1" page="1" pageScale="1" pageWidth="1654" pageHeight="1169" math="0" shadow="0">
      <root>
        <mxCell id="0" />
        <mxCell id="1" parent="0" />
        <mxCell id="yS4Auysj0yb1mgpmarGh-30" value="" style="fontSize=12;html=1;endArrow=ERzeroToMany;startArrow=ERmandOne;strokeWidth=2;entryX=0.5;entryY=0;entryDx=0;entryDy=0;exitX=0.5;exitY=1;exitDx=0;exitDy=0;" parent="1" source="yS4Auysj0yb1mgpmarGh-12" target="yS4Auysj0yb1mgpmarGh-13" edge="1">
          <mxGeometry width="100" height="100" relative="1" as="geometry">
            <mxPoint x="680" y="610" as="sourcePoint" />
            <mxPoint x="780" y="510" as="targetPoint" />
          </mxGeometry>
        </mxCell>
        <mxCell id="yS4Auysj0yb1mgpmarGh-11" value="Empleado" style="swimlane;childLayout=stackLayout;horizontal=1;startSize=30;horizontalStack=0;rounded=1;fontSize=14;fontStyle=0;strokeWidth=2;resizeParent=0;resizeLast=1;shadow=0;dashed=0;align=center;" parent="1" vertex="1">
          <mxGeometry x="750" y="340" width="160" height="120" as="geometry" />
        </mxCell>
        <mxCell id="yS4Auysj0yb1mgpmarGh-12" value="+id_empleado&#xa;+nombre_em&#xa;+edad&#xa;+telefono_em&#xa;+direccion_em" style="align=left;strokeColor=none;fillColor=none;spacingLeft=4;fontSize=12;verticalAlign=top;resizable=0;rotatable=0;part=1;" parent="yS4Auysj0yb1mgpmarGh-11" vertex="1">
          <mxGeometry y="30" width="160" height="90" as="geometry" />
        </mxCell>
        <mxCell id="yS4Auysj0yb1mgpmarGh-38" value="" style="endArrow=none;html=1;strokeWidth=2;exitX=0;exitY=0.25;exitDx=0;exitDy=0;entryX=1;entryY=0.25;entryDx=0;entryDy=0;" parent="yS4Auysj0yb1mgpmarGh-11" source="yS4Auysj0yb1mgpmarGh-12" target="yS4Auysj0yb1mgpmarGh-12" edge="1">
          <mxGeometry width="50" height="50" relative="1" as="geometry">
            <mxPoint x="210" y="40" as="sourcePoint" />
            <mxPoint x="260" y="-10" as="targetPoint" />
          </mxGeometry>
        </mxCell>
        <mxCell id="yS4Auysj0yb1mgpmarGh-13" value="Compra" style="swimlane;childLayout=stackLayout;horizontal=1;startSize=30;horizontalStack=0;rounded=1;fontSize=14;fontStyle=0;strokeWidth=2;resizeParent=0;resizeLast=1;shadow=0;dashed=0;align=center;" parent="1" vertex="1">
          <mxGeometry x="750" y="680" width="160" height="120" as="geometry" />
        </mxCell>
        <mxCell id="yS4Auysj0yb1mgpmarGh-14" value="+id_compra&#xa;+cantidad_co&#xa;+fecha_co&#xa;+hora_co" style="align=left;strokeColor=none;fillColor=none;spacingLeft=4;fontSize=12;verticalAlign=top;resizable=0;rotatable=0;part=1;" parent="yS4Auysj0yb1mgpmarGh-13" vertex="1">
          <mxGeometry y="30" width="160" height="90" as="geometry" />
        </mxCell>
        <mxCell id="yS4Auysj0yb1mgpmarGh-36" style="edgeStyle=none;rounded=1;orthogonalLoop=1;jettySize=auto;html=1;entryX=0;entryY=0.5;entryDx=0;entryDy=0;strokeWidth=2;" parent="yS4Auysj0yb1mgpmarGh-13" source="yS4Auysj0yb1mgpmarGh-14" target="yS4Auysj0yb1mgpmarGh-14" edge="1">
          <mxGeometry relative="1" as="geometry" />
        </mxCell>
        <mxCell id="yS4Auysj0yb1mgpmarGh-35" value="" style="endArrow=none;html=1;strokeWidth=2;exitX=0;exitY=0.25;exitDx=0;exitDy=0;entryX=1;entryY=0.25;entryDx=0;entryDy=0;" parent="yS4Auysj0yb1mgpmarGh-13" source="yS4Auysj0yb1mgpmarGh-14" target="yS4Auysj0yb1mgpmarGh-14" edge="1">
          <mxGeometry width="50" height="50" relative="1" as="geometry">
            <mxPoint x="200" y="-10" as="sourcePoint" />
            <mxPoint x="250" y="-60" as="targetPoint" />
          </mxGeometry>
        </mxCell>
        <mxCell id="yS4Auysj0yb1mgpmarGh-40" value="&lt;h1&gt;DIAGRAMA ENTIDAD RELACIÃ“N&lt;/h1&gt;&lt;div&gt;&lt;b&gt;EQUIPO 7&lt;/b&gt;&lt;/div&gt;&lt;div&gt;&lt;b&gt;&lt;br&gt;&lt;/b&gt;&lt;/div&gt;" style="text;html=1;strokeColor=none;fillColor=none;spacing=5;spacingTop=-20;whiteSpace=wrap;overflow=hidden;rounded=0;align=center;" parent="1" vertex="1">
          <mxGeometry x="620" y="90" width="450" height="120" as="geometry" />
        </mxCell>
        <mxCell id="xZR6L2Q0r_49w582ZbOt-5" style="edgeStyle=none;rounded=0;orthogonalLoop=1;jettySize=auto;html=1;exitX=0.5;exitY=0;exitDx=0;exitDy=0;entryX=0.5;entryY=1;entryDx=0;entryDy=0;strokeWidth=2;" edge="1" parent="1" source="xZR6L2Q0r_49w582ZbOt-4" target="yS4Auysj0yb1mgpmarGh-16">
          <mxGeometry relative="1" as="geometry" />
        </mxCell>
        <mxCell id="xZR6L2Q0r_49w582ZbOt-6" style="edgeStyle=none;rounded=0;orthogonalLoop=1;jettySize=auto;html=1;exitX=0.5;exitY=1;exitDx=0;exitDy=0;entryX=0.5;entryY=0;entryDx=0;entryDy=0;strokeWidth=2;" edge="1" parent="1" source="xZR6L2Q0r_49w582ZbOt-4" target="yS4Auysj0yb1mgpmarGh-18">
          <mxGeometry relative="1" as="geometry" />
        </mxCell>
        <mxCell id="xZR6L2Q0r_49w582ZbOt-4" value="N:N" style="shape=rhombus;double=1;perimeter=rhombusPerimeter;whiteSpace=wrap;html=1;align=center;" vertex="1" parent="1">
          <mxGeometry x="1120" y="525" width="120" height="60" as="geometry" />
        </mxCell>
        <mxCell id="xZR6L2Q0r_49w582ZbOt-19" style="edgeStyle=none;rounded=0;orthogonalLoop=1;jettySize=auto;html=1;exitX=1;exitY=0.5;exitDx=0;exitDy=0;strokeWidth=2;" edge="1" parent="1" source="xZR6L2Q0r_49w582ZbOt-7" target="yS4Auysj0yb1mgpmarGh-16">
          <mxGeometry relative="1" as="geometry" />
        </mxCell>
        <mxCell id="xZR6L2Q0r_49w582ZbOt-20" style="edgeStyle=none;rounded=0;orthogonalLoop=1;jettySize=auto;html=1;exitX=0;exitY=0.5;exitDx=0;exitDy=0;entryX=1;entryY=0.333;entryDx=0;entryDy=0;entryPerimeter=0;strokeWidth=2;" edge="1" parent="1" source="xZR6L2Q0r_49w582ZbOt-7" target="yS4Auysj0yb1mgpmarGh-12">
          <mxGeometry relative="1" as="geometry" />
        </mxCell>
        <mxCell id="xZR6L2Q0r_49w582ZbOt-7" value="1:N" style="shape=rhombus;double=1;perimeter=rhombusPerimeter;whiteSpace=wrap;html=1;align=center;" vertex="1" parent="1">
          <mxGeometry x="950" y="370" width="120" height="60" as="geometry" />
        </mxCell>
        <mxCell id="xZR6L2Q0r_49w582ZbOt-9" style="edgeStyle=none;rounded=0;orthogonalLoop=1;jettySize=auto;html=1;exitX=1;exitY=0.5;exitDx=0;exitDy=0;entryX=0;entryY=0.5;entryDx=0;entryDy=0;strokeWidth=2;" edge="1" parent="1" source="xZR6L2Q0r_49w582ZbOt-8" target="yS4Auysj0yb1mgpmarGh-11">
          <mxGeometry relative="1" as="geometry" />
        </mxCell>
        <mxCell id="xZR6L2Q0r_49w582ZbOt-10" style="edgeStyle=none;rounded=0;orthogonalLoop=1;jettySize=auto;html=1;exitX=0;exitY=0.5;exitDx=0;exitDy=0;entryX=0.994;entryY=0.344;entryDx=0;entryDy=0;entryPerimeter=0;strokeWidth=2;" edge="1" parent="1" source="xZR6L2Q0r_49w582ZbOt-8" target="yS4Auysj0yb1mgpmarGh-2">
          <mxGeometry relative="1" as="geometry" />
        </mxCell>
        <mxCell id="xZR6L2Q0r_49w582ZbOt-8" value="1:N" style="shape=rhombus;double=1;perimeter=rhombusPerimeter;whiteSpace=wrap;html=1;align=center;" vertex="1" parent="1">
          <mxGeometry x="600" y="370" width="120" height="60" as="geometry" />
        </mxCell>
        <mxCell id="yS4Auysj0yb1mgpmarGh-1" value="Sucursal" style="swimlane;childLayout=stackLayout;horizontal=1;startSize=30;horizontalStack=0;rounded=1;fontSize=14;fontStyle=0;strokeWidth=2;resizeParent=0;resizeLast=1;shadow=0;dashed=0;align=center;" parent="1" vertex="1">
          <mxGeometry x="400" y="340" width="160" height="120" as="geometry" />
        </mxCell>
        <mxCell id="yS4Auysj0yb1mgpmarGh-2" value="+id_sucursal&#xa;+nombre_su&#xa;+direccion_su&#xa;+telefono_su" style="align=left;strokeColor=none;fillColor=none;spacingLeft=4;fontSize=12;verticalAlign=top;resizable=0;rotatable=0;part=1;" parent="yS4Auysj0yb1mgpmarGh-1" vertex="1">
          <mxGeometry y="30" width="160" height="90" as="geometry" />
        </mxCell>
        <mxCell id="yS4Auysj0yb1mgpmarGh-33" value="" style="endArrow=none;html=1;strokeWidth=2;exitX=0;exitY=0.25;exitDx=0;exitDy=0;entryX=1;entryY=0.25;entryDx=0;entryDy=0;" parent="yS4Auysj0yb1mgpmarGh-1" source="yS4Auysj0yb1mgpmarGh-2" target="yS4Auysj0yb1mgpmarGh-2" edge="1">
          <mxGeometry width="50" height="50" relative="1" as="geometry">
            <mxPoint x="170" y="220" as="sourcePoint" />
            <mxPoint x="310" y="220" as="targetPoint" />
          </mxGeometry>
        </mxCell>
        <mxCell id="yS4Auysj0yb1mgpmarGh-9" value="Proveedor" style="swimlane;childLayout=stackLayout;horizontal=1;startSize=30;horizontalStack=0;rounded=1;fontSize=14;fontStyle=0;strokeWidth=2;resizeParent=0;resizeLast=1;shadow=0;dashed=0;align=center;" parent="1" vertex="1">
          <mxGeometry x="400" y="680" width="160" height="120" as="geometry" />
        </mxCell>
        <mxCell id="yS4Auysj0yb1mgpmarGh-10" value="+id_proveedor&#xa;+nombre_pr&#xa;+correo_pr&#xa;+direccion_pr&#xa;+telefono_pr" style="align=left;strokeColor=none;fillColor=none;spacingLeft=4;fontSize=12;verticalAlign=top;resizable=0;rotatable=0;part=1;" parent="yS4Auysj0yb1mgpmarGh-9" vertex="1">
          <mxGeometry y="30" width="160" height="90" as="geometry" />
        </mxCell>
        <mxCell id="yS4Auysj0yb1mgpmarGh-37" value="" style="endArrow=none;html=1;strokeWidth=2;exitX=0;exitY=0.25;exitDx=0;exitDy=0;entryX=1;entryY=0.25;entryDx=0;entryDy=0;" parent="yS4Auysj0yb1mgpmarGh-9" source="yS4Auysj0yb1mgpmarGh-10" target="yS4Auysj0yb1mgpmarGh-10" edge="1">
          <mxGeometry width="50" height="50" relative="1" as="geometry">
            <mxPoint x="150" y="-20" as="sourcePoint" />
            <mxPoint x="200" y="-70" as="targetPoint" />
          </mxGeometry>
        </mxCell>
        <mxCell id="xZR6L2Q0r_49w582ZbOt-12" style="edgeStyle=none;rounded=0;orthogonalLoop=1;jettySize=auto;html=1;entryX=1;entryY=0.5;entryDx=0;entryDy=0;strokeWidth=2;" edge="1" parent="1" source="xZR6L2Q0r_49w582ZbOt-11" target="yS4Auysj0yb1mgpmarGh-10">
          <mxGeometry relative="1" as="geometry" />
        </mxCell>
        <mxCell id="xZR6L2Q0r_49w582ZbOt-15" style="edgeStyle=none;rounded=0;orthogonalLoop=1;jettySize=auto;html=1;exitX=1;exitY=0.5;exitDx=0;exitDy=0;entryX=0.013;entryY=0.433;entryDx=0;entryDy=0;entryPerimeter=0;strokeWidth=2;" edge="1" parent="1" source="xZR6L2Q0r_49w582ZbOt-11" target="yS4Auysj0yb1mgpmarGh-14">
          <mxGeometry relative="1" as="geometry" />
        </mxCell>
        <mxCell id="xZR6L2Q0r_49w582ZbOt-11" value="1:N" style="shape=rhombus;double=1;perimeter=rhombusPerimeter;whiteSpace=wrap;html=1;align=center;" vertex="1" parent="1">
          <mxGeometry x="600" y="720" width="120" height="60" as="geometry" />
        </mxCell>
        <mxCell id="xZR6L2Q0r_49w582ZbOt-17" style="edgeStyle=none;rounded=0;orthogonalLoop=1;jettySize=auto;html=1;exitX=0;exitY=0.5;exitDx=0;exitDy=0;entryX=1;entryY=0.333;entryDx=0;entryDy=0;entryPerimeter=0;strokeWidth=2;" edge="1" parent="1" source="xZR6L2Q0r_49w582ZbOt-16" target="yS4Auysj0yb1mgpmarGh-14">
          <mxGeometry relative="1" as="geometry" />
        </mxCell>
        <mxCell id="xZR6L2Q0r_49w582ZbOt-18" style="edgeStyle=none;rounded=0;orthogonalLoop=1;jettySize=auto;html=1;exitX=1;exitY=0.5;exitDx=0;exitDy=0;entryX=0;entryY=0.5;entryDx=0;entryDy=0;strokeWidth=2;" edge="1" parent="1" source="xZR6L2Q0r_49w582ZbOt-16" target="yS4Auysj0yb1mgpmarGh-18">
          <mxGeometry relative="1" as="geometry" />
        </mxCell>
        <mxCell id="xZR6L2Q0r_49w582ZbOt-16" value="N:N" style="shape=rhombus;double=1;perimeter=rhombusPerimeter;whiteSpace=wrap;html=1;align=center;" vertex="1" parent="1">
          <mxGeometry x="950" y="710" width="120" height="60" as="geometry" />
        </mxCell>
        <mxCell id="yS4Auysj0yb1mgpmarGh-18" value="Producto" style="swimlane;childLayout=stackLayout;horizontal=1;startSize=30;horizontalStack=0;rounded=1;fontSize=14;fontStyle=0;strokeWidth=2;resizeParent=0;resizeLast=1;shadow=0;dashed=0;align=center;" parent="1" vertex="1">
          <mxGeometry x="1100" y="680" width="160" height="120" as="geometry" />
        </mxCell>
        <mxCell id="yS4Auysj0yb1mgpmarGh-19" value="+id_producto&#xa;+nombre_pr&#xa;+precio_ven&#xa;+precio_com&#xa;+tamaÃ±o_pr&#xa;+existencia_pr" style="align=left;strokeColor=none;fillColor=none;spacingLeft=4;fontSize=12;verticalAlign=top;resizable=0;rotatable=0;part=1;" parent="yS4Auysj0yb1mgpmarGh-18" vertex="1">
          <mxGeometry y="30" width="160" height="90" as="geometry" />
        </mxCell>
        <mxCell id="yS4Auysj0yb1mgpmarGh-34" value="" style="endArrow=none;html=1;strokeWidth=2;exitX=0;exitY=0.25;exitDx=0;exitDy=0;entryX=1;entryY=0.25;entryDx=0;entryDy=0;" parent="yS4Auysj0yb1mgpmarGh-18" source="yS4Auysj0yb1mgpmarGh-19" target="yS4Auysj0yb1mgpmarGh-19" edge="1">
          <mxGeometry width="50" height="50" relative="1" as="geometry">
            <mxPoint x="-190" y="62.5" as="sourcePoint" />
            <mxPoint x="-30" y="62.5" as="targetPoint" />
          </mxGeometry>
        </mxCell>
        <mxCell id="yS4Auysj0yb1mgpmarGh-15" value="Venta" style="swimlane;childLayout=stackLayout;horizontal=1;startSize=30;horizontalStack=0;rounded=1;fontSize=14;fontStyle=0;strokeWidth=2;resizeParent=0;resizeLast=1;shadow=0;dashed=0;align=center;" parent="1" vertex="1">
          <mxGeometry x="1101" y="330" width="160" height="120" as="geometry" />
        </mxCell>
        <mxCell id="yS4Auysj0yb1mgpmarGh-16" value="+id_venta&#xa;+cantidad_ve&#xa;+fecha_ve&#xa;+hora_ve" style="align=left;strokeColor=none;fillColor=none;spacingLeft=4;fontSize=12;verticalAlign=top;resizable=0;rotatable=0;part=1;" parent="yS4Auysj0yb1mgpmarGh-15" vertex="1">
          <mxGeometry y="30" width="160" height="90" as="geometry" />
        </mxCell>
        <mxCell id="yS4Auysj0yb1mgpmarGh-39" value="" style="endArrow=none;html=1;strokeWidth=2;exitX=0;exitY=0.25;exitDx=0;exitDy=0;entryX=1;entryY=0.25;entryDx=0;entryDy=0;" parent="yS4Auysj0yb1mgpmarGh-15" source="yS4Auysj0yb1mgpmarGh-16" target="yS4Auysj0yb1mgpmarGh-16" edge="1">
          <mxGeometry width="50" height="50" relative="1" as="geometry">
            <mxPoint x="230" y="90" as="sourcePoint" />
            <mxPoint x="280" y="40" as="targetPoint" />
          </mxGeometry>
        </mxCell>
      </root>
    </mxGraphModel>
  </diagram>
</mxfile>
